<?xml version="1.0" encoding="UTF-8" standalone="no"?>
<!DOCTYPE svg PUBLIC "-//W3C//DTD SVG 1.1//EN" "http://www.w3.org/Graphics/SVG/1.1/DTD/svg11.dtd">
<svg width="100%" height="100%" viewBox="0 0 512 512" version="1.1" xmlns="http://www.w3.org/2000/svg" xmlns:xlink="http://www.w3.org/1999/xlink" xml:space="preserve" xmlns:serif="http://www.serif.com/" style="fill-rule:evenodd;clip-rule:evenodd;stroke-linejoin:round;stroke-miterlimit:2;">
    <g>
        <path d="M256,0C396.738,0 511,114.262 511,255C511,395.738 396.738,510 256,510C115.262,510 1,395.738 1,255C1,114.262 115.262,0 256,0ZM407.404,231.381L328.36,230.787L328.686,187.417C328.712,183.92 327.334,181.112 325.257,178.297L270.445,118.016L270.647,91.143C270.704,83.448 264.456,77.105 256.761,77.047C249.067,76.99 242.724,83.238 242.666,90.933L242.459,118.563L187.452,177.262C185.338,179.344 183.913,182.831 183.887,186.329L183.561,229.699L105.915,229.116C98.221,229.058 91.878,235.306 91.82,243.001L90.711,390.597C90.653,398.292 96.901,404.635 104.596,404.693L405.385,406.953C413.08,407.01 419.423,400.762 420.175,393.772L421.289,245.476C421.347,237.782 415.099,231.439 407.404,231.381ZM392.3,379.572L327.246,379.084L328.155,258.068L393.21,258.557L392.3,379.572ZM256.267,142.802L300.668,192.103L299.265,378.873L268.486,378.641L268.975,313.587C269.033,305.892 262.785,299.55 255.09,299.492C247.395,299.434 241.053,305.682 240.995,313.377L240.506,378.432L210.427,378.206L211.436,243.899C211.448,242.383 211.211,240.92 210.769,239.547L211.131,191.431L256.267,142.802ZM119.001,256.496L183.356,256.98L182.447,377.995L118.092,377.511L119.001,256.496Z"/>
    </g>
</svg>
