<?xml version="1.0" encoding="UTF-8" standalone="no"?>
<!DOCTYPE svg PUBLIC "-//W3C//DTD SVG 1.1//EN" "http://www.w3.org/Graphics/SVG/1.1/DTD/svg11.dtd">
<svg width="100%" height="100%" viewBox="0 0 512 512" version="1.1" xmlns="http://www.w3.org/2000/svg" xmlns:xlink="http://www.w3.org/1999/xlink" xml:space="preserve" xmlns:serif="http://www.serif.com/" style="fill-rule:evenodd;clip-rule:evenodd;stroke-linejoin:round;stroke-miterlimit:2;">
    <g transform="matrix(0.693358,0,0,0.693358,76,73.4719)">
        <g transform="matrix(1.44226,0,0,1.44226,-109.612,-105.965)">
            <circle cx="256" cy="255" r="255"/>
        </g>
        <g transform="matrix(0.928085,0.00697341,-0.00697341,0.928085,24.6322,2.87897)">
            <path d="M490.259,238.607L367.423,238.607L367.423,171.21C367.423,165.775 365.249,161.427 361.988,157.078L276.11,64.045L276.11,22.284C276.11,10.326 266.327,0.543 254.369,0.543C242.411,0.543 232.628,10.326 232.628,22.284L232.628,65.222L147.838,157.078C144.577,160.339 142.403,165.774 142.403,171.21L142.403,238.607L21.741,238.607C9.783,238.607 0,248.391 0,260.348L0,489.715C0,501.673 9.783,511.456 21.741,511.456L489.171,511.456C501.129,511.456 510.912,501.673 511.999,490.802L511.999,260.348C512,248.391 502.217,238.607 490.259,238.607ZM254.369,102.726L323.94,178.819L323.94,469.061L276.11,469.061L276.11,367.966C276.11,356.008 266.327,346.225 254.369,346.225C242.411,346.225 232.628,356.008 232.628,367.966L232.628,469.062L185.885,469.062L185.885,260.348C185.885,257.991 185.5,255.721 184.798,253.592L184.798,178.82L254.369,102.726ZM42.395,281.002L142.403,281.002L142.403,469.061L42.395,469.061L42.395,281.002ZM468.519,469.062L367.423,469.062L367.423,281.002L468.519,281.002L468.519,469.062Z" style="fill:white;fill-rule:nonzero;"/>
        </g>
    </g>
</svg>
