<?xml version="1.0" encoding="UTF-8" standalone="no"?>
<!DOCTYPE svg PUBLIC "-//W3C//DTD SVG 1.1//EN" "http://www.w3.org/Graphics/SVG/1.1/DTD/svg11.dtd">
<svg width="100%" height="100%" viewBox="0 0 512 512" version="1.1" xmlns="http://www.w3.org/2000/svg" xmlns:xlink="http://www.w3.org/1999/xlink" xml:space="preserve" xmlns:serif="http://www.serif.com/" style="fill-rule:evenodd;clip-rule:evenodd;stroke-linejoin:round;stroke-miterlimit:2;">
    <g>
        <path d="M256.5,1C396.962,1 511,115.038 511,255.5C511,395.962 396.962,510 256.5,510C116.038,510 2,395.962 2,255.5C2,115.038 116.038,1 256.5,1ZM392.685,221.689L323.11,221.689L323.11,183.515C323.11,180.437 321.879,177.974 320.032,175.511L271.39,122.816L271.39,99.163C271.39,92.39 265.849,86.848 259.076,86.848C252.303,86.848 246.762,92.39 246.762,99.163L246.762,123.483L198.736,175.511C196.889,177.358 195.658,180.436 195.658,183.515L195.658,221.689L127.314,221.689C120.541,221.689 115,227.231 115,234.003L115,363.918C115,370.691 120.541,376.232 127.314,376.232L392.069,376.232C398.842,376.232 404.383,370.691 404.998,364.533L404.998,234.003C404.999,227.231 399.458,221.689 392.685,221.689ZM380.371,352.22L323.11,352.22L323.11,245.702L380.371,245.702L380.371,352.22ZM139.013,245.702L195.658,245.702L195.658,352.219L139.013,352.219L139.013,245.702ZM259.076,144.725L298.481,187.825L298.481,352.219L271.39,352.219L271.39,294.958C271.39,288.185 265.849,282.644 259.076,282.644C252.303,282.644 246.762,288.185 246.762,294.958L246.762,352.22L220.286,352.22L220.286,234.003C220.286,232.668 220.068,231.382 219.67,230.176L219.67,187.825L259.076,144.725Z" style="fill:white;"/>
    </g>
</svg>
