<?xml version="1.0" encoding="UTF-8" standalone="no"?><!DOCTYPE svg PUBLIC "-//W3C//DTD SVG 1.1//EN" "http://www.w3.org/Graphics/SVG/1.1/DTD/svg11.dtd"><svg width="100%" height="100%" viewBox="0 0 2558 2558" version="1.1" xmlns="http://www.w3.org/2000/svg" xmlns:xlink="http://www.w3.org/1999/xlink" xml:space="preserve" xmlns:serif="http://www.serif.com/" style="fill-rule:evenodd;clip-rule:evenodd;stroke-linejoin:round;stroke-miterlimit:2;"><path d="M1278.5,0c705.626,0 1278.5,572.878 1278.5,1278.5c-0,705.626 -572.878,1278.5 -1278.5,1278.5c-705.625,-0 -1278.5,-572.878 -1278.5,-1278.5c0,-705.625 572.878,-1278.5 1278.5,-1278.5Zm-897.881,756.37l0,20.533l134.933,0l0,1003.2l-134.933,0l0,20.534l929.867,-0l-0,-331.467l-19.067,-0c-12.711,56.711 -30.555,104.867 -53.533,144.467c-22.978,39.6 -48.889,71.866 -77.734,96.8c-28.844,24.933 -59.644,42.777 -92.4,53.533c-32.755,10.756 -65.266,16.133 -97.533,16.133l-242,0l0,-1003.2l134.933,0l0,-20.533l-482.533,-0Zm1101.88,604.267c0,73.333 9.534,138.6 28.6,195.8c19.067,57.2 45.223,105.355 78.467,144.466c33.245,39.111 72.6,68.689 118.067,88.734c45.466,20.044 94.111,30.066 145.933,30.066c44,0 87.022,-8.555 129.067,-25.666c42.044,-17.111 79.444,-40.823 112.2,-71.134c32.755,-30.311 59.155,-65.511 79.2,-105.6c20.044,-40.089 30.066,-83.111 30.066,-129.066c0,-45.956 -9.044,-88.978 -27.133,-129.067c-18.089,-40.089 -42.533,-75.044 -73.333,-104.867c-30.8,-29.822 -66.245,-53.289 -106.334,-70.4c-40.088,-17.111 -82.622,-25.666 -127.6,-25.666c-29.333,-0 -54.511,3.177 -75.533,9.533c-21.022,6.356 -38.867,14.422 -53.533,24.2c-14.667,9.778 -26.645,20.289 -35.934,31.533c-9.288,11.245 -17.355,21.267 -24.2,30.067l-2.933,-2.933c2.933,-29.334 6.6,-61.845 11,-97.534c4.4,-35.689 10.756,-71.866 19.067,-108.533c8.311,-36.667 18.578,-72.6 30.8,-107.8c12.222,-35.2 27.622,-66.244 46.2,-93.133c18.578,-26.889 40.822,-48.645 66.733,-65.267c25.911,-16.622 56.467,-24.933 91.667,-24.933c16.622,-0 29.578,2.689 38.866,8.066c9.289,5.378 16.134,11.489 20.534,18.334c4.4,6.844 7.333,13.689 8.8,20.533c1.466,6.844 2.2,11.733 2.2,14.667c-0,13.689 -4.156,29.577 -12.467,47.666c-8.311,18.089 -12.467,35.934 -12.467,53.534c0,19.555 5.867,35.2 17.6,46.933c11.734,11.733 34.712,17.6 68.934,17.6c58.666,-0 88,-28.844 88,-86.533c-0,-28.356 -6.111,-52.556 -18.334,-72.6c-12.222,-20.045 -28.355,-36.667 -48.4,-49.867c-20.044,-13.2 -42.777,-22.978 -68.2,-29.333c-25.422,-6.356 -51.333,-9.534 -77.733,-9.534c-66.489,0 -128.333,17.111 -185.533,51.334c-57.2,34.222 -106.578,80.177 -148.134,137.866c-41.555,57.689 -74.311,124.423 -98.266,200.2c-23.956,75.778 -35.934,155.223 -35.934,238.334Zm523.6,101.2c0,78.222 -4.155,139.822 -12.466,184.8c-8.311,44.977 -19.556,78.955 -33.734,101.933c-14.177,22.978 -30.8,37.4 -49.866,43.267c-19.067,5.866 -39.845,8.8 -62.334,8.8c-17.6,-0 -36.422,-2.689 -56.466,-8.067c-20.045,-5.378 -38.622,-20.044 -55.734,-44c-17.111,-23.956 -31.288,-61.111 -42.533,-111.467c-11.244,-50.355 -16.867,-120.022 -16.867,-209c0,-29.333 0.734,-53.777 2.2,-73.333c1.467,-19.556 3.912,-35.933 7.334,-49.133c3.422,-13.2 7.578,-24.2 12.466,-33c4.889,-8.8 10.756,-17.6 17.6,-26.4c22.489,-29.334 47.178,-47.911 74.067,-55.734c26.889,-7.822 50.111,-11.733 69.667,-11.733c53.778,-0 91.666,23.711 113.666,71.133c22,47.423 33,118.067 33,211.934Zm-1082.53,-705.467l-0,20.533l79.2,0l291.867,648.267l11.733,-0l259.6,-648.267l67.467,0l-0,-20.533l-205.334,-0l0,20.533l112.934,0l-159.867,406.267l-180.4,-406.267l105.6,0l-0,-20.533l-382.8,-0Z"/></svg>